<?xml version="1.0" encoding="utf-8"?>
<!-- Generator: Adobe Illustrator 22.0.1, SVG Export Plug-In . SVG Version: 6.00 Build 0)  -->
<svg version="1.1" xmlns="http://www.w3.org/2000/svg" xmlns:xlink="http://www.w3.org/1999/xlink" x="0px" y="0px"
	 viewBox="0 0 300 300" style="enable-background:new 0 0 300 300;" xml:space="preserve">
<style type="text/css">
	.st0{display:none;}
	.st1{display:inline;fill:#C89BC8;}
	.st2{fill:#FFFFFF;}
	.st3{fill:none;stroke:#FFFFFF;stroke-width:15;stroke-miterlimit:10;}
</style>
<g id="Layer_2" class="st0">
	<rect y="0" class="st1" width="300" height="300"/>
</g>
<g id="Layer_1">
	<g>
		<g>
			<path class="st2" d="M72.7,107.2l4,6.8c1.7-7.8,6.3-13.5,13.6-17.1c7.6-3.7,14.7-2.9,21.2,2.5c1.1-9,5.6-15.5,13.7-19.4
				c13.4-6.5,24.7-0.5,34,17.8l24.2,50.1l-20,9.7l-23.6-48.8c-2.1-4.4-4.3-7.3-6.4-8.6c-2.1-1.3-4.7-1.2-7.6,0.2
				c-3.7,1.8-5.4,5.4-5,10.9l1.3,2.3l25.1,51.9l-20,9.7l-23.5-48.7c-2.1-4.4-4.2-7.3-6.4-8.6c-2.1-1.4-4.7-1.3-7.7,0.1
				c-3.4,1.7-5.3,4.8-5.5,9.5l26.9,55.5l-20,9.7l-37-76.5L72.7,107.2z"/>
		</g>
		<g>
			<path class="st2" d="M137.4,148.4l4,6.8c1.7-7.8,6.3-13.5,13.6-17.1c7.6-3.7,14.7-2.9,21.2,2.5c1.1-9,5.6-15.5,13.7-19.4
				c13.4-6.5,24.7-0.5,34,17.8l24.2,50.1l-20,9.7l-23.6-48.8c-2.1-4.4-4.3-7.3-6.4-8.6c-2.1-1.3-4.7-1.2-7.6,0.2
				c-3.7,1.8-5.4,5.4-5,10.9l1.3,2.3l25.1,51.9l-20,9.7l-23.5-48.7c-2.1-4.4-4.2-7.3-6.4-8.6c-2.1-1.4-4.7-1.3-7.7,0.1
				c-3.4,1.7-5.3,4.8-5.5,9.5l26.9,55.5l-20,9.7l-37-76.5L137.4,148.4z"/>
		</g>
	</g>
	<rect x="8" y="8" class="st3" width="284" height="284"/>
</g>
</svg>
